<svg width="34" height="34" viewBox="0 0 34 34" fill="none" xmlns="http://www.w3.org/2000/svg">
<rect opacity="0.1" width="34" height="34" rx="5" fill="#6600CC"/>
<path d="M24.5 8.66667H14.5C14.04 8.66641 13.6669 9.03908 13.6667 9.49906C13.6667 9.49937 13.6667 9.49969 13.6667 9.50001V12.8333H20.3334C20.7933 12.8331 21.1664 13.2057 21.1667 13.6657C21.1667 13.666 21.1667 13.6664 21.1667 13.6667V20.3333H24.5C24.96 20.3336 25.3331 19.9609 25.3334 19.501C25.3334 19.5006 25.3334 19.5003 25.3334 19.5V9.50001C25.3336 9.04003 24.9609 8.66693 24.501 8.66667C24.5007 8.66667 24.5003 8.66667 24.5 8.66667Z" fill="#C199EA"/>
<path d="M9.50002 17H16.1667C16.6269 17 17 17.3731 17 17.8333V24.5C17 24.9602 16.6269 25.3333 16.1667 25.3333H9.50002C9.03979 25.3333 8.66669 24.9602 8.66669 24.5V17.8333C8.66669 17.3731 9.03979 17 9.50002 17Z" fill="#6600CC"/>
<path d="M20.3334 12.8333H12C11.54 12.8331 11.1669 13.2057 11.1667 13.6657C11.1667 13.666 11.1667 13.6663 11.1667 13.6667V17H16.1667C16.6267 16.9997 16.9998 17.3724 17 17.8324C17 17.8327 17 17.833 17 17.8333V22.8333H20.3334C20.7933 22.8336 21.1664 22.4609 21.1667 22.0009C21.1667 22.0006 21.1667 22.0003 21.1667 22V13.6667C21.1669 13.2067 20.7943 12.8336 20.3343 12.8333C20.334 12.8333 20.3337 12.8333 20.3334 12.8333Z" fill="#A366E0"/>
</svg>
