<svg width="34" height="34" viewBox="0 0 34 34" fill="none" xmlns="http://www.w3.org/2000/svg">
<rect opacity="0.1" width="34" height="34" rx="5" fill="#6600CC"/>
<path d="M22.8334 8.66666H11.1667C10.5039 8.66738 9.8684 8.931 9.39972 9.39969C8.93104 9.86837 8.66741 10.5038 8.66669 11.1667V19.5C8.66741 20.1628 8.93104 20.7983 9.39972 21.267C9.8684 21.7356 10.5039 21.9993 11.1667 22H20.8216L23.9108 25.0892C24.0273 25.2057 24.1758 25.2851 24.3375 25.3173C24.4991 25.3494 24.6667 25.333 24.8189 25.2699C24.9712 25.2068 25.1014 25.1 25.1929 24.963C25.2845 24.8259 25.3334 24.6648 25.3334 24.5V11.1667C25.3326 10.5038 25.069 9.86837 24.6003 9.39969C24.1316 8.931 23.4962 8.66738 22.8334 8.66666ZM13.6667 16.1667C13.5019 16.1667 13.3408 16.1178 13.2037 16.0262C13.0667 15.9346 12.9599 15.8045 12.8968 15.6522C12.8337 15.5 12.8172 15.3324 12.8494 15.1707C12.8815 15.0091 12.9609 14.8606 13.0774 14.7441C13.194 14.6275 13.3425 14.5482 13.5041 14.516C13.6658 14.4838 13.8333 14.5004 13.9856 14.5634C14.1379 14.6265 14.268 14.7333 14.3596 14.8703C14.4511 15.0074 14.5 15.1685 14.5 15.3333C14.5 15.5543 14.4122 15.7663 14.2559 15.9226C14.0997 16.0789 13.8877 16.1667 13.6667 16.1667ZM17 16.1667C16.8352 16.1667 16.6741 16.1178 16.537 16.0262C16.4 15.9346 16.2932 15.8045 16.2301 15.6522C16.167 15.5 16.1505 15.3324 16.1827 15.1707C16.2149 15.0091 16.2942 14.8606 16.4108 14.7441C16.5273 14.6275 16.6758 14.5482 16.8374 14.516C16.9991 14.4838 17.1667 14.5004 17.3189 14.5634C17.4712 14.6265 17.6013 14.7333 17.6929 14.8703C17.7845 15.0074 17.8334 15.1685 17.8334 15.3333C17.8334 15.5543 17.7456 15.7663 17.5893 15.9226C17.433 16.0789 17.221 16.1667 17 16.1667ZM20.3334 16.1667C20.1685 16.1667 20.0074 16.1178 19.8704 16.0262C19.7333 15.9346 19.6265 15.8045 19.5635 15.6522C19.5004 15.5 19.4839 15.3324 19.516 15.1707C19.5482 15.0091 19.6276 14.8606 19.7441 14.7441C19.8606 14.6275 20.0091 14.5482 20.1708 14.516C20.3324 14.4838 20.5 14.5004 20.6523 14.5634C20.8045 14.6265 20.9347 14.7333 21.0262 14.8703C21.1178 15.0074 21.1667 15.1685 21.1667 15.3333C21.1667 15.5543 21.0789 15.7663 20.9226 15.9226C20.7663 16.0789 20.5544 16.1667 20.3334 16.1667Z" fill="#A366E0"/>
<path d="M13.6666 16.1667C14.1269 16.1667 14.5 15.7936 14.5 15.3333C14.5 14.8731 14.1269 14.5 13.6666 14.5C13.2064 14.5 12.8333 14.8731 12.8333 15.3333C12.8333 15.7936 13.2064 16.1667 13.6666 16.1667Z" fill="#6600CC"/>
<path d="M17 16.1667C17.4603 16.1667 17.8334 15.7936 17.8334 15.3333C17.8334 14.8731 17.4603 14.5 17 14.5C16.5398 14.5 16.1667 14.8731 16.1667 15.3333C16.1667 15.7936 16.5398 16.1667 17 16.1667Z" fill="#6600CC"/>
<path d="M20.3333 16.1667C20.7936 16.1667 21.1667 15.7936 21.1667 15.3333C21.1667 14.8731 20.7936 14.5 20.3333 14.5C19.8731 14.5 19.5 14.8731 19.5 15.3333C19.5 15.7936 19.8731 16.1667 20.3333 16.1667Z" fill="#6600CC"/>
</svg>
