<svg width="34" height="34" viewBox="0 0 34 34" fill="none" xmlns="http://www.w3.org/2000/svg">
<rect opacity="0.1" width="34" height="34" rx="5" fill="#6600CC"/>
<g clip-path="url(#clip0_18_821)">
<path d="M12 26.1667H8.66665C8.5572 26.1667 8.44883 26.1452 8.34771 26.1033C8.24659 26.0614 8.15472 26 8.07733 25.9227C7.99994 25.8453 7.93856 25.7534 7.89669 25.6523C7.85482 25.5512 7.83328 25.4428 7.83331 25.3333V20.3333C7.83328 20.2239 7.85482 20.1155 7.89669 20.0144C7.93856 19.9133 7.99994 19.8214 8.07733 19.744C8.15472 19.6666 8.24659 19.6052 8.34771 19.5634C8.44883 19.5215 8.5572 19.5 8.66665 19.5H12C12.1094 19.5 12.2178 19.5215 12.3189 19.5634C12.42 19.6052 12.5119 19.6666 12.5893 19.744C12.6667 19.8214 12.7281 19.9133 12.7699 20.0144C12.8118 20.1155 12.8333 20.2239 12.8333 20.3333V25.3333C12.8333 25.4428 12.8118 25.5512 12.7699 25.6523C12.7281 25.7534 12.6667 25.8453 12.5893 25.9227C12.5119 26 12.42 26.0614 12.3189 26.1033C12.2178 26.1452 12.1094 26.1667 12 26.1667Z" fill="#C199EA"/>
<path d="M18.6667 26.1667H15.3333C15.2239 26.1667 15.1155 26.1452 15.0144 26.1033C14.9133 26.0614 14.8214 26 14.744 25.9227C14.6666 25.8453 14.6052 25.7534 14.5634 25.6523C14.5215 25.5512 14.5 25.4428 14.5 25.3333V15.3333C14.5 15.2239 14.5215 15.1155 14.5634 15.0144C14.6052 14.9133 14.6666 14.8214 14.744 14.744C14.8214 14.6666 14.9133 14.6052 15.0144 14.5634C15.1155 14.5215 15.2239 14.5 15.3333 14.5H18.6667C18.7761 14.5 18.8845 14.5215 18.9856 14.5634C19.0867 14.6052 19.1786 14.6666 19.256 14.744C19.3334 14.8214 19.3948 14.9133 19.4366 15.0144C19.4785 15.1155 19.5 15.2239 19.5 15.3333V25.3333C19.5 25.4428 19.4785 25.5512 19.4366 25.6523C19.3948 25.7534 19.3334 25.8453 19.256 25.9227C19.1786 26 19.0867 26.0614 18.9856 26.1033C18.8845 26.1452 18.7761 26.1667 18.6667 26.1667Z" fill="#A366E0"/>
<path d="M25.3334 26.1667H22C21.8906 26.1667 21.7822 26.1452 21.6811 26.1033C21.58 26.0614 21.4881 26.0001 21.4107 25.9227C21.3333 25.8453 21.2719 25.7534 21.2301 25.6523C21.1882 25.5512 21.1667 25.4428 21.1667 25.3333V8.66668C21.1667 8.55723 21.1882 8.44886 21.2301 8.34774C21.2719 8.24662 21.3333 8.15475 21.4107 8.07736C21.4881 7.99997 21.58 7.93859 21.6811 7.89672C21.7822 7.85485 21.8906 7.83332 22 7.83334H25.3334C25.4428 7.83332 25.5512 7.85485 25.6523 7.89672C25.7534 7.93859 25.8453 7.99997 25.9227 8.07736C26.0001 8.15475 26.0614 8.24662 26.1033 8.34774C26.1452 8.44886 26.1667 8.55723 26.1667 8.66668V25.3333C26.1667 25.4428 26.1452 25.5512 26.1033 25.6523C26.0614 25.7534 26.0001 25.8453 25.9227 25.9227C25.8453 26.0001 25.7534 26.0614 25.6523 26.1033C25.5512 26.1452 25.4428 26.1667 25.3334 26.1667Z" fill="#6600CC"/>
</g>
<defs>
<clipPath id="clip0_18_821">
<rect width="20" height="20" fill="white" transform="translate(7 7)"/>
</clipPath>
</defs>
</svg>
