<svg width="34" height="34" viewBox="0 0 34 34" fill="none" xmlns="http://www.w3.org/2000/svg">
<rect opacity="0.1" width="34" height="34" rx="5" fill="#6600CC"/>
<path d="M23.8583 13.0333L17 17L10.1417 13.0333C10.2825 12.7896 10.4833 12.5859 10.725 12.4417L16.1667 9.30001C16.6839 9.00831 17.3161 9.00831 17.8333 9.30001L23.275 12.4417C23.5167 12.5859 23.7175 12.7896 23.8583 13.0333Z" fill="#C199EA"/>
<path d="M17 17V24.9167C16.7373 24.9163 16.478 24.8565 16.2417 24.7417L10.75 21.5667C10.2353 21.2689 9.91781 20.7197 9.91669 20.125V13.875C9.91807 13.5798 9.99557 13.2899 10.1417 13.0333L17 17Z" fill="#A366E0"/>
<path d="M24.0833 13.875V20.125C24.0822 20.7197 23.7648 21.2689 23.25 21.5667L17.7333 24.75C17.5039 24.8582 17.2537 24.9151 17 24.9167V17L23.8583 13.0333C24.0044 13.2899 24.082 13.5798 24.0833 13.875Z" fill="#6600CC"/>
</svg>
