<svg width="24" height="24" viewBox="0 0 24 24" fill="none" xmlns="http://www.w3.org/2000/svg">
<path d="M21.0005 10C21.0005 17 12.0005 23 12.0005 23C12.0005 23 3.00049 17 3.00049 10C3.00049 7.61305 3.9487 5.32387 5.63653 3.63604C7.32435 1.94821 9.61354 1 12.0005 1C14.3874 1 16.6766 1.94821 18.3644 3.63604C20.0523 5.32387 21.0005 7.61305 21.0005 10Z" stroke="white" stroke-width="2" stroke-linecap="round" stroke-linejoin="round"/>
<path d="M12.0005 13C13.6573 13 15.0005 11.6569 15.0005 10C15.0005 8.34315 13.6573 7 12.0005 7C10.3436 7 9.00049 8.34315 9.00049 10C9.00049 11.6569 10.3436 13 12.0005 13Z" stroke="white" stroke-width="2" stroke-linecap="round" stroke-linejoin="round"/>
</svg>
